<svg width="24" height="23" viewBox="0 0 24 23" fill="none" xmlns="http://www.w3.org/2000/svg">
<path d="M9.0993 20.0813H14.9007V12.7616C14.9007 12.2991 14.599 11.9975 14.1366 11.9975H9.87346C9.40088 11.9975 9.0993 12.2991 9.0993 12.7616V20.0813ZM5.16799 21.1168H18.7716C20.1994 21.1168 21.0339 20.3025 21.0339 18.8948V7.78465L19.4151 6.67867V18.4826C19.4151 19.1361 19.0633 19.4981 18.4298 19.4981H5.50984C4.86636 19.4981 4.51445 19.1361 4.51445 18.4826V6.68872L2.89568 7.78465V18.8948C2.89568 20.3025 3.7302 21.1168 5.16799 21.1168ZM0 9.92622C0 10.3385 0.321742 10.7306 0.86468 10.7306C1.14621 10.7306 1.37746 10.5798 1.5886 10.4088L11.6531 1.96313C11.8743 1.76204 12.1457 1.76204 12.367 1.96313L22.4314 10.4088C22.6326 10.5798 22.8638 10.7306 23.1454 10.7306C23.6179 10.7306 24 10.439 24 9.95642C24 9.65476 23.8994 9.45373 23.6883 9.2727L13.2216 0.475072C12.4776 -0.158357 11.5525 -0.158357 10.7984 0.475072L0.321742 9.2727C0.100545 9.45373 0 9.69499 0 9.92622ZM18.5102 5.3917L21.0339 7.52323V2.87808C21.0339 2.43569 20.7524 2.15416 20.31 2.15416H19.2342C18.8018 2.15416 18.5102 2.43569 18.5102 2.87808V5.3917Z" fill="black" fill-opacity="0.85"/>
</svg>
