<svg width="24" height="26" viewBox="0 0 24 26" fill="none" xmlns="http://www.w3.org/2000/svg">
<path d="M11.7461 0.0117188C11.3594 0.0117188 10.9141 0.164062 10.4922 0.609375L1.76172 9.85547C1.23438 10.418 1 10.8867 1 11.4609C1 12.2578 1.58594 12.832 2.37109 12.832H6.84766V22.3477C6.84766 24.1992 7.90234 25.2773 9.71875 25.2773H13.7617C15.5781 25.2773 16.6328 24.1992 16.6328 22.3477V12.832H21.0625C21.8477 12.832 22.5039 12.2578 22.5039 11.4375C22.5039 10.8633 22.2461 10.4766 21.6602 9.85547L13.0117 0.609375C12.5898 0.152344 12.1445 0.0117188 11.7461 0.0117188ZM11.7461 2.10938C11.8164 2.10938 11.8867 2.14453 11.9688 2.23828L19.9727 10.582C20.0312 10.6406 20.0664 10.7109 20.0664 10.7812C20.0664 10.8867 20.0078 10.9453 19.9023 10.9453H15.25C14.9805 10.9453 14.8633 11.0742 14.8633 11.3438V22.3242C14.8633 23.0742 14.4414 23.5078 13.6797 23.5078H9.8125C9.05078 23.5078 8.61719 23.0742 8.61719 22.3242V11.3438C8.61719 11.0742 8.5 10.9453 8.23047 10.9453H3.69531C3.58984 10.9453 3.51953 10.8867 3.51953 10.793C3.51953 10.7227 3.55469 10.6523 3.625 10.582L11.5234 2.23828C11.6172 2.14453 11.6758 2.10938 11.7461 2.10938Z" fill="black" fill-opacity="0.85"/>
</svg>
