<svg width="16" height="16" viewBox="0 0 16 16" fill="none" xmlns="http://www.w3.org/2000/svg">
<g clip-path="url(#clip0_113_2767)">
<path d="M8 15.9921C12.3765 15.9921 16 12.3626 16 7.99605C16 3.62175 12.3687 0 7.99217 0C3.62353 0 0 3.62175 0 7.99605C0 12.3626 3.63138 15.9921 8 15.9921ZM8 14.6595C4.29805 14.6595 1.34118 11.6962 1.34118 7.99605C1.34118 4.29593 4.29021 1.33268 7.99217 1.33268C11.6942 1.33268 14.6667 4.29593 14.6667 7.99605C14.6667 11.6962 11.702 14.6595 8 14.6595Z" fill="#A8A8A8" fill-opacity="0.85"/>
<path d="M5.31764 11.3121C5.49803 11.3121 5.6549 11.2415 5.77254 11.1161L7.99215 8.88977L10.2274 11.1161C10.3451 11.2337 10.4941 11.3121 10.6745 11.3121C11.0196 11.3121 11.302 11.0299 11.302 10.6771C11.302 10.4968 11.2392 10.3557 11.1137 10.2303L8.88624 8.00387L11.1216 5.76187C11.2549 5.6286 11.3098 5.49533 11.3098 5.32287C11.3098 4.97794 11.0275 4.69572 10.6823 4.69572C10.5176 4.69572 10.3843 4.75844 10.251 4.89171L7.99215 7.12587L5.75685 4.89955C5.63921 4.77412 5.49803 4.7114 5.31764 4.7114C4.97254 4.7114 4.69019 4.98578 4.69019 5.33071C4.69019 5.50317 4.76077 5.65212 4.87842 5.76971L7.10589 8.00387L4.87842 10.2381C4.76077 10.3557 4.69019 10.5046 4.69019 10.6771C4.69019 11.0299 4.97254 11.3121 5.31764 11.3121Z" fill="#A8A8A8" fill-opacity="0.85"/>
</g>
<defs>
<clipPath id="clip0_113_2767">
<rect width="16" height="16" fill="white"/>
</clipPath>
</defs>
</svg>
