<svg width="20" height="15" viewBox="0 0 20 15" fill="none" xmlns="http://www.w3.org/2000/svg">
<g clip-path="url(#clip0_110_2167)">
<path d="M10.0037 13.6104C15.9166 13.6104 20 8.95726 20 7.50353C20 6.04275 15.9093 1.39668 10.0037 1.39668C4.17125 1.39668 0 6.04275 0 7.50353C0 8.95726 4.16393 13.6104 10.0037 13.6104ZM10.0037 12.4845C5.18113 12.4845 1.28064 8.50832 1.28064 7.50353C1.28064 6.65557 5.18113 2.52257 10.0037 2.52257C14.8042 2.52257 18.7194 6.65557 18.7194 7.50353C18.7194 8.50832 14.8042 12.4845 10.0037 12.4845ZM10.0037 11.494C12.2796 11.494 14.1091 9.67698 14.1091 7.50353C14.1091 5.27316 12.2796 3.51306 10.0037 3.51306C7.71317 3.51306 5.88365 5.27316 5.88365 7.50353C5.88365 9.67698 7.71317 11.494 10.0037 11.494ZM10.0037 8.82896C9.24261 8.82896 8.62789 8.23043 8.62789 7.50353C8.62789 6.76959 9.24261 6.17817 10.0037 6.17817C10.7574 6.17817 11.3721 6.76959 11.3721 7.50353C11.3721 8.23043 10.7574 8.82896 10.0037 8.82896Z" fill="#A8A8A8"/>
<path d="M14.9651 14.266C15.5286 14.8076 16.4214 14.8218 16.9776 14.2589C17.5411 13.6888 17.5191 12.848 16.9703 12.3135L4.73462 0.406175C4.18577 -0.135392 3.27835 -0.135392 2.72218 0.406175C2.17333 0.933493 2.17333 1.82423 2.72218 2.35867L14.9651 14.266Z" fill="white"/>
<path d="M15.5725 13.6746C15.7921 13.8955 16.136 13.9097 16.3702 13.6746C16.6044 13.4394 16.5897 13.1187 16.3702 12.8978L4.12723 0.990505C3.91501 0.776724 3.54911 0.776724 3.32225 0.990505C3.11003 1.19715 3.11003 1.56058 3.32225 1.76722L15.5725 13.6746Z" fill="#A8A8A8"/>
</g>
<defs>
<clipPath id="clip0_110_2167">
<rect width="20" height="15" fill="white"/>
</clipPath>
</defs>
</svg>
