<svg width="11" height="18" viewBox="0 0 11 18" fill="none" xmlns="http://www.w3.org/2000/svg">
<path d="M0 8.99483C0 9.25383 0.0932643 9.48189 0.290155 9.67873L8.50776 17.7098C8.68392 17.8964 8.91188 17.9897 9.18132 17.9897C9.7202 17.9897 10.1347 17.5854 10.1347 17.0466C10.1347 16.7772 10.0207 16.5492 9.85488 16.373L2.31088 8.99483L9.85488 1.61657C10.0207 1.44042 10.1347 1.20208 10.1347 0.943007C10.1347 0.404144 9.7202 0 9.18132 0C8.91188 0 8.68392 0.0932643 8.50776 0.26943L0.290155 8.31087C0.0932643 8.4974 0 8.73574 0 8.99483Z" fill="black" fill-opacity="0.85"/>
</svg>
