<svg width="24" height="24" viewBox="0 0 24 24" fill="none" xmlns="http://www.w3.org/2000/svg">
<g clip-path="url(#clip0_28_13609)">
<path d="M1 9.35156C1 14.5078 5.19531 18.7031 10.3516 18.7031C12.3906 18.7031 14.2539 18.0469 15.7891 16.9453L21.5547 22.7227C21.8242 22.9922 22.1758 23.1211 22.5508 23.1211C23.3477 23.1211 23.8984 22.5234 23.8984 21.7383C23.8984 21.3633 23.7578 21.0234 23.5117 20.7773L17.7812 15.0117C18.9883 13.4414 19.7031 11.4844 19.7031 9.35156C19.7031 4.19531 15.5078 0 10.3516 0C5.19531 0 1 4.19531 1 9.35156ZM3.00391 9.35156C3.00391 5.29688 6.29688 2.00391 10.3516 2.00391C14.4062 2.00391 17.6992 5.29688 17.6992 9.35156C17.6992 13.4062 14.4062 16.6992 10.3516 16.6992C6.29688 16.6992 3.00391 13.4062 3.00391 9.35156Z" fill="black" fill-opacity="0.85"/>
</g>
<defs>
<clipPath id="clip0_28_13609">
<rect width="22.8984" height="23.1211" fill="white" transform="translate(1)"/>
</clipPath>
</defs>
</svg>
