<svg width="68" height="22" viewBox="0 0 68 22" fill="none" xmlns="http://www.w3.org/2000/svg">
<rect x="1" y="1" width="66" height="20" rx="10" stroke="black" stroke-width="2"/>
<path d="M17.9805 11V11.3125C17.9805 11.7422 17.9245 12.1276 17.8125 12.4688C17.7005 12.8099 17.5404 13.1003 17.332 13.3398C17.1263 13.5794 16.8789 13.763 16.5898 13.8906C16.3008 14.0156 15.9805 14.0781 15.6289 14.0781C15.2799 14.0781 14.9609 14.0156 14.6719 13.8906C14.3854 13.763 14.1367 13.5794 13.9258 13.3398C13.7148 13.1003 13.5508 12.8099 13.4336 12.4688C13.319 12.1276 13.2617 11.7422 13.2617 11.3125V11C13.2617 10.5703 13.319 10.1862 13.4336 9.84766C13.5482 9.50651 13.7096 9.21615 13.918 8.97656C14.1289 8.73438 14.3776 8.55078 14.6641 8.42578C14.9531 8.29818 15.2721 8.23438 15.6211 8.23438C15.9727 8.23438 16.293 8.29818 16.582 8.42578C16.8711 8.55078 17.1198 8.73438 17.3281 8.97656C17.5365 9.21615 17.6966 9.50651 17.8086 9.84766C17.9232 10.1862 17.9805 10.5703 17.9805 11ZM17 11.3125V10.9922C17 10.6745 16.9688 10.3945 16.9062 10.1523C16.8464 9.90755 16.7565 9.70312 16.6367 9.53906C16.5195 9.3724 16.375 9.2474 16.2031 9.16406C16.0312 9.07812 15.8372 9.03516 15.6211 9.03516C15.4049 9.03516 15.2122 9.07812 15.043 9.16406C14.8737 9.2474 14.7292 9.3724 14.6094 9.53906C14.4922 9.70312 14.4023 9.90755 14.3398 10.1523C14.2773 10.3945 14.2461 10.6745 14.2461 10.9922V11.3125C14.2461 11.6302 14.2773 11.9115 14.3398 12.1562C14.4023 12.401 14.4935 12.6081 14.6133 12.7773C14.7357 12.944 14.8815 13.0703 15.0508 13.1562C15.2201 13.2396 15.4128 13.2812 15.6289 13.2812C15.8477 13.2812 16.0417 13.2396 16.2109 13.1562C16.3802 13.0703 16.5234 12.944 16.6406 12.7773C16.7578 12.6081 16.8464 12.401 16.9062 12.1562C16.9688 11.9115 17 11.6302 17 11.3125ZM22.3203 12.1484H23.2969C23.2656 12.5208 23.1615 12.8529 22.9844 13.1445C22.8073 13.4336 22.5586 13.6615 22.2383 13.8281C21.918 13.9948 21.5286 14.0781 21.0703 14.0781C20.7188 14.0781 20.4023 14.0156 20.1211 13.8906C19.8398 13.763 19.599 13.5833 19.3984 13.3516C19.1979 13.1172 19.0443 12.8346 18.9375 12.5039C18.8333 12.1732 18.7812 11.8034 18.7812 11.3945V10.9219C18.7812 10.513 18.8346 10.1432 18.9414 9.8125C19.0508 9.48177 19.207 9.19922 19.4102 8.96484C19.6133 8.72786 19.8568 8.54688 20.1406 8.42188C20.4271 8.29688 20.7487 8.23438 21.1055 8.23438C21.5586 8.23438 21.9414 8.31771 22.2539 8.48438C22.5664 8.65104 22.8086 8.88151 22.9805 9.17578C23.1549 9.47005 23.2617 9.80729 23.3008 10.1875H22.3242C22.2982 9.94271 22.2409 9.73307 22.1523 9.55859C22.0664 9.38411 21.9388 9.2513 21.7695 9.16016C21.6003 9.06641 21.3789 9.01953 21.1055 9.01953C20.8815 9.01953 20.6862 9.0612 20.5195 9.14453C20.3529 9.22786 20.2135 9.35026 20.1016 9.51172C19.9896 9.67318 19.9049 9.8724 19.8477 10.1094C19.793 10.3438 19.7656 10.612 19.7656 10.9141V11.3945C19.7656 11.681 19.7904 11.9414 19.8398 12.1758C19.8919 12.4076 19.9701 12.6068 20.0742 12.7734C20.181 12.9401 20.3164 13.069 20.4805 13.1602C20.6445 13.2513 20.8411 13.2969 21.0703 13.2969C21.349 13.2969 21.5742 13.2526 21.7461 13.1641C21.9206 13.0755 22.0521 12.9466 22.1406 12.7773C22.2318 12.6055 22.2917 12.3958 22.3203 12.1484ZM25.9609 12.0195L27.4062 8.3125H28.4883L26.5117 12.9688C26.4492 13.112 26.3776 13.2513 26.2969 13.3867C26.2188 13.5195 26.1237 13.638 26.0117 13.7422C25.8997 13.8464 25.7643 13.9297 25.6055 13.9922C25.4466 14.0521 25.2539 14.082 25.0273 14.082C24.9674 14.082 24.8945 14.0794 24.8086 14.0742C24.7253 14.069 24.6641 14.0638 24.625 14.0586L24.6328 13.2891C24.6641 13.2943 24.7161 13.2982 24.7891 13.3008C24.8646 13.3034 24.9193 13.3047 24.9531 13.3047C25.1042 13.3047 25.224 13.2799 25.3125 13.2305C25.401 13.1784 25.4714 13.1094 25.5234 13.0234C25.5781 12.9349 25.6263 12.8385 25.668 12.7344L25.9609 12.0195ZM24.875 8.3125L26.3047 11.4609L26.5859 12.4844L25.8242 12.5117L23.8047 8.3125H24.875ZM30.9609 11.5391L28.8555 8.3125H30.0469L31.4336 10.6914H32.457L32.3203 11.5391H30.9609ZM31.4492 11.4141L29.957 14H28.7383L30.7188 10.75L31.4492 11.4141ZM33.0234 8.3125V14H32.0469V8.3125H33.0234ZM36.1758 8.3125L34.0859 11.5391H32.7461L32.6094 10.6914H33.6133L34.9805 8.3125H36.1758ZM35.0703 14L33.6016 11.4141L34.3359 10.75L36.2891 14H35.0703ZM41.4609 13.2227V14H37.2695V13.2227H41.4609ZM37.5117 13.2227V15.3984H36.5742L36.5391 13.2227H37.5117ZM42.2188 13.2227L42.1602 15.3945H41.2383V13.2227H42.2188ZM40.7734 8.3125V9.09375H38.1484V8.3125H40.7734ZM41.5234 8.3125V14H40.5469V8.3125H41.5234ZM37.9531 8.3125H38.9336L38.7969 10.6172C38.776 10.9818 38.7383 11.3099 38.6836 11.6016C38.6289 11.8932 38.5625 12.1549 38.4844 12.3867C38.4089 12.6159 38.3229 12.819 38.2266 12.9961C38.1302 13.1706 38.0273 13.3216 37.918 13.4492C37.8086 13.5768 37.6966 13.6862 37.582 13.7773C37.4701 13.8659 37.3594 13.9401 37.25 14H36.7266V13.2227H36.9805C37.0508 13.1576 37.1289 13.0638 37.2148 12.9414C37.3008 12.8164 37.3841 12.6536 37.4648 12.4531C37.5482 12.25 37.6211 11.9987 37.6836 11.6992C37.7461 11.3997 37.7891 11.0391 37.8125 10.6172L37.9531 8.3125ZM45.2383 9.07031L43.5391 14H42.5117L44.6523 8.3125H45.3086L45.2383 9.07031ZM46.6602 14L44.957 9.07031L44.8828 8.3125H45.543L47.6914 14H46.6602ZM46.5781 11.8906V12.668H43.4844V11.8906H46.5781ZM49.3594 8.3125V14H48.3789V8.3125H49.3594ZM50.5469 10.8711V11.6211H49.0859V10.8711H50.5469ZM54.7969 11V11.3125C54.7969 11.7422 54.7409 12.1276 54.6289 12.4688C54.5169 12.8099 54.3568 13.1003 54.1484 13.3398C53.9401 13.5794 53.6914 13.763 53.4023 13.8906C53.1159 14.0156 52.7956 14.0781 52.4414 14.0781C52.0951 14.0781 51.7773 14.0156 51.4883 13.8906C51.1992 13.763 50.9492 13.5794 50.7383 13.3398C50.5273 13.1003 50.3646 12.8099 50.25 12.4688C50.1354 12.1276 50.0781 11.7422 50.0781 11.3125V11C50.0781 10.5703 50.1354 10.1862 50.25 9.84766C50.3646 9.50651 50.526 9.21615 50.7344 8.97656C50.9427 8.73438 51.1914 8.55078 51.4805 8.42578C51.7695 8.29818 52.0872 8.23438 52.4336 8.23438C52.7878 8.23438 53.1094 8.29818 53.3984 8.42578C53.6875 8.55078 53.9362 8.73438 54.1445 8.97656C54.3529 9.21615 54.513 9.50651 54.625 9.84766C54.7396 10.1862 54.7969 10.5703 54.7969 11ZM53.8164 11.3125V10.9922C53.8164 10.6745 53.7852 10.3945 53.7227 10.1523C53.6602 9.90755 53.5703 9.70312 53.4531 9.53906C53.3359 9.3724 53.1914 9.2474 53.0195 9.16406C52.8477 9.07812 52.6523 9.03516 52.4336 9.03516C52.2201 9.03516 52.0286 9.07812 51.8594 9.16406C51.6901 9.2474 51.5456 9.3724 51.4258 9.53906C51.3086 9.70312 51.2188 9.90755 51.1562 10.1523C51.0938 10.3945 51.0625 10.6745 51.0625 10.9922V11.3125C51.0625 11.6302 51.0938 11.9115 51.1562 12.1562C51.2188 12.401 51.3099 12.6081 51.4297 12.7773C51.5521 12.944 51.6979 13.0703 51.8672 13.1562C52.0365 13.2396 52.2279 13.2812 52.4414 13.2812C52.6628 13.2812 52.8581 13.2396 53.0273 13.1562C53.1966 13.0703 53.3398 12.944 53.457 12.7773C53.5742 12.6081 53.6628 12.401 53.7227 12.1562C53.7852 11.9115 53.8164 11.6302 53.8164 11.3125Z" fill="black"/>
</svg>
