<svg width="23" height="23" viewBox="0 0 23 23" fill="none" xmlns="http://www.w3.org/2000/svg">
<path d="M16.5821 23C17.3126 23 17.7196 22.4766 17.7196 21.6704V18.9485H18.2205C21.3303 18.9485 23 17.2317 23 14.1539V6.13473C23 3.0569 21.3303 1.34001 18.2205 1.34001H4.7795C1.66969 1.34001 0 3.06736 0 6.13473V14.1539C0 17.2212 1.66969 18.9485 4.7795 18.9485H11.4791L15.0794 22.1625C15.716 22.7278 16.0708 23 16.5821 23ZM16.1543 21.0842L12.8149 17.7551C12.4183 17.3469 12.1262 17.2631 11.5417 17.2631H4.7795C2.68195 17.2631 1.68013 16.1848 1.68013 14.1433V6.13473C1.68013 4.09331 2.68195 3.02549 4.7795 3.02549H18.2205C20.3285 3.02549 21.3199 4.09331 21.3199 6.13473V14.1433C21.3199 16.1848 20.3285 17.2631 18.2205 17.2631H16.9369C16.3734 17.2631 16.1543 17.4829 16.1543 18.0482V21.0842Z" fill="black" fill-opacity="0.85"/>
</svg>
