<svg width="68" height="22" viewBox="0 0 68 22" fill="none" xmlns="http://www.w3.org/2000/svg">
<rect x="1" y="1" width="66" height="20" rx="10" stroke="black" stroke-width="2"/>
<path d="M18.4727 12.0195L19.918 8.3125H21L19.0234 12.9688C18.9609 13.112 18.8893 13.2513 18.8086 13.3867C18.7305 13.5195 18.6354 13.638 18.5234 13.7422C18.4115 13.8464 18.276 13.9297 18.1172 13.9922C17.9583 14.0521 17.7656 14.082 17.5391 14.082C17.4792 14.082 17.4062 14.0794 17.3203 14.0742C17.237 14.069 17.1758 14.0638 17.1367 14.0586L17.1445 13.2891C17.1758 13.2943 17.2279 13.2982 17.3008 13.3008C17.3763 13.3034 17.431 13.3047 17.4648 13.3047C17.6159 13.3047 17.7357 13.2799 17.8242 13.2305C17.9128 13.1784 17.9831 13.1094 18.0352 13.0234C18.0898 12.9349 18.138 12.8385 18.1797 12.7344L18.4727 12.0195ZM17.3867 8.3125L18.8164 11.4609L19.0977 12.4844L18.3359 12.5117L16.3164 8.3125H17.3867ZM23.8789 11.4297H22.4297L22.4219 10.7148H23.6875C23.901 10.7148 24.082 10.6836 24.2305 10.6211C24.3815 10.556 24.4961 10.4635 24.5742 10.3438C24.6523 10.2214 24.6914 10.0742 24.6914 9.90234C24.6914 9.71224 24.6549 9.55729 24.582 9.4375C24.5091 9.31771 24.3971 9.23047 24.2461 9.17578C24.0977 9.12109 23.9076 9.09375 23.6758 9.09375H22.7266V14H21.7461V8.3125H23.6758C23.9883 8.3125 24.2669 8.34245 24.5117 8.40234C24.7591 8.46224 24.9688 8.55599 25.1406 8.68359C25.3151 8.80859 25.4466 8.96745 25.5352 9.16016C25.6263 9.35286 25.6719 9.58203 25.6719 9.84766C25.6719 10.082 25.6159 10.2969 25.5039 10.4922C25.3919 10.6849 25.2266 10.8424 25.0078 10.9648C24.7891 11.0872 24.5169 11.1602 24.1914 11.1836L23.8789 11.4297ZM23.8359 14H22.1211L22.5625 13.2227H23.8359C24.0573 13.2227 24.2422 13.1862 24.3906 13.1133C24.5391 13.0378 24.6497 12.9349 24.7227 12.8047C24.7982 12.6719 24.8359 12.5169 24.8359 12.3398C24.8359 12.1549 24.8034 11.9948 24.7383 11.8594C24.6732 11.7214 24.5703 11.6159 24.4297 11.543C24.2891 11.4674 24.1055 11.4297 23.8789 11.4297H22.7773L22.7852 10.7148H24.2188L24.4414 10.9844C24.7539 10.9948 25.0104 11.0638 25.2109 11.1914C25.4141 11.319 25.5651 11.4844 25.6641 11.6875C25.763 11.8906 25.8125 12.1094 25.8125 12.3438C25.8125 12.7057 25.7331 13.0091 25.5742 13.2539C25.418 13.4987 25.1927 13.6849 24.8984 13.8125C24.6042 13.9375 24.25 14 23.8359 14ZM29.0156 9.07031L27.3164 14H26.2891L28.4297 8.3125H29.0859L29.0156 9.07031ZM30.4375 14L28.7344 9.07031L28.6602 8.3125H29.3203L31.4688 14H30.4375ZM30.3555 11.8906V12.668H27.2617V11.8906H30.3555ZM33.832 11.5391L31.7266 8.3125H32.918L34.3047 10.6914H35.3281L35.1914 11.5391H33.832ZM34.3203 11.4141L32.8281 14H31.6094L33.5898 10.75L34.3203 11.4141ZM35.8945 8.3125V14H34.918V8.3125H35.8945ZM39.0469 8.3125L36.957 11.5391H35.6172L35.4805 10.6914H36.4844L37.8516 8.3125H39.0469ZM37.9414 14L36.4727 11.4141L37.207 10.75L39.1602 14H37.9414ZM41.9844 9.07031L40.2852 14H39.2578L41.3984 8.3125H42.0547L41.9844 9.07031ZM43.4062 14L41.7031 9.07031L41.6289 8.3125H42.2891L44.4375 14H43.4062ZM43.3242 11.8906V12.668H40.2305V11.8906H43.3242ZM46.1055 8.3125V14H45.125V8.3125H46.1055ZM47.293 10.8711V11.6211H45.832V10.8711H47.293ZM51.543 11V11.3125C51.543 11.7422 51.487 12.1276 51.375 12.4688C51.263 12.8099 51.1029 13.1003 50.8945 13.3398C50.6862 13.5794 50.4375 13.763 50.1484 13.8906C49.862 14.0156 49.5417 14.0781 49.1875 14.0781C48.8411 14.0781 48.5234 14.0156 48.2344 13.8906C47.9453 13.763 47.6953 13.5794 47.4844 13.3398C47.2734 13.1003 47.1107 12.8099 46.9961 12.4688C46.8815 12.1276 46.8242 11.7422 46.8242 11.3125V11C46.8242 10.5703 46.8815 10.1862 46.9961 9.84766C47.1107 9.50651 47.2721 9.21615 47.4805 8.97656C47.6888 8.73438 47.9375 8.55078 48.2266 8.42578C48.5156 8.29818 48.8333 8.23438 49.1797 8.23438C49.5339 8.23438 49.8555 8.29818 50.1445 8.42578C50.4336 8.55078 50.6823 8.73438 50.8906 8.97656C51.099 9.21615 51.2591 9.50651 51.3711 9.84766C51.4857 10.1862 51.543 10.5703 51.543 11ZM50.5625 11.3125V10.9922C50.5625 10.6745 50.5312 10.3945 50.4688 10.1523C50.4062 9.90755 50.3164 9.70312 50.1992 9.53906C50.082 9.3724 49.9375 9.2474 49.7656 9.16406C49.5938 9.07812 49.3984 9.03516 49.1797 9.03516C48.9661 9.03516 48.7747 9.07812 48.6055 9.16406C48.4362 9.2474 48.2917 9.3724 48.1719 9.53906C48.0547 9.70312 47.9648 9.90755 47.9023 10.1523C47.8398 10.3945 47.8086 10.6745 47.8086 10.9922V11.3125C47.8086 11.6302 47.8398 11.9115 47.9023 12.1562C47.9648 12.401 48.056 12.6081 48.1758 12.7773C48.2982 12.944 48.444 13.0703 48.6133 13.1562C48.7826 13.2396 48.974 13.2812 49.1875 13.2812C49.4089 13.2812 49.6042 13.2396 49.7734 13.1562C49.9427 13.0703 50.0859 12.944 50.2031 12.7773C50.3203 12.6081 50.4089 12.401 50.4688 12.1562C50.5312 11.9115 50.5625 11.6302 50.5625 11.3125Z" fill="black"/>
</svg>
